<?xml version="1.0" encoding="utf-8"?>
<!-- Generator: Adobe Illustrator 25.2.3, SVG Export Plug-In . SVG Version: 6.00 Build 0)  -->
<svg version="1.1" id="圖層_1" xmlns="http://www.w3.org/2000/svg" xmlns:xlink="http://www.w3.org/1999/xlink" x="0px" y="0px"
	 viewBox="0 0 397.5 237.1" style="enable-background:new 0 0 397.5 237.1;" xml:space="preserve">
<style type="text/css">
	.st0{fill:#F5333F;}
	.st1{fill:#006580;}
	.st2{fill:#4B3D2A;}
	.st3{enable-background:new    ;}
	.st4{fill:#606060;}
	.st5{fill:none;}
	.st6{font-family:'SourceHanSansTC-Bold-B5pc-H';}
	.st7{font-size:3.506px;}
	.st8{font-family:'PingFangTC-Regular-B5pc-H';}
	.st9{font-family:'PingFangTC-Semibold-B5pc-H';}
	.st10{fill:none;stroke:#606060;stroke-width:0.2;stroke-miterlimit:10;}
</style>
<g>
	<g>
		<path class="st0" d="M331.3,106.8c-0.2,2-2,3.5-4.1,3.3c-2-0.2-4-2.5-3.7-4.5c0.2-2,0.9-4.1,2.9-3.8
			C328.7,101.8,331.5,104.6,331.3,106.8"/>
		<path class="st0" d="M311.5,87.6c0.5-2.2,2.9-3.5,5.1-3.1c2.2,0.5,4,3.5,3.3,5.7c-0.5,2.2-1.7,4.4-4,3.8
			C313.6,93.6,310.9,89.9,311.5,87.6"/>
		<path class="st0" d="M260.1,113.1c0.9,1.7,0.2,3.7-1.5,4.6s-4.2,0-5.1-1.6c-0.9-1.7-1.3-3.5,0.2-4.5
			C255.6,110.8,259.3,111.5,260.1,113.1"/>
		<path class="st0" d="M340.3,119.1c-1.8,0.7-4-0.4-4.6-2.2s0.7-4.5,2.5-5.1c1.8-0.7,4-0.8,4.6,1.1
			C343.4,114.7,342.1,118.4,340.3,119.1"/>
		<path class="st0" d="M302.5,95.7c0.7,2.4-0.7,4.8-3.1,5.4c-2.4,0.7-5.3-1.1-5.9-3.5c-0.7-2.4-0.7-4.9,1.6-5.5
			C297.3,91.5,301.9,93.3,302.5,95.7"/>
		<path class="st0" d="M291.8,85.1c-2,0.7-4.1-0.4-4.8-2.4c-0.7-2,0.7-4.6,2.6-5.4c2-0.7,4.2-0.8,4.9,1.1
			C295.1,80.5,293.7,84.4,291.8,85.1"/>
		<path class="st0" d="M275.8,109.5c-1.3,1.5-3.5,1.5-5,0.2s-1.6-4.2-0.2-5.7c1.3-1.5,3.1-2.5,4.5-1.2
			C276.6,104.2,277.1,108.2,275.8,109.5"/>
	</g>
	<g>
		<path class="st1" d="M278.9,82.5c-4.8,0.7-6.6-1.8-9.2-4.5c1.3-0.9,3.1-1.1,4.6-0.9c0.7,0,1.3,0.2,2,0.4c2,0.8,2.9,2.8,3.3,4.9"/>
		<path class="st1" d="M284.1,96.1c0.2-4.1,2.6-5.3,5.4-7c0.5,1.3,0.4,2.8,0,4.1c-0.2,0.5-0.2,1.2-0.7,1.6c-1.1,1.5-2.9,2-4.6,2"/>
		<path class="st1" d="M325.8,92.1c4,1.2,5.8-0.7,8.4-2.6c-1.1-0.9-2.5-1.2-3.8-1.3c-0.5,0-1.2-0.2-1.7,0c-1.7,0.4-2.9,2-3.5,3.7"/>
		<path class="st1" d="M275.2,120.6c-0.2-5.4,2.6-7.4,6.1-10.1c0.9,1.6,0.9,3.5,0.7,5.4c-0.2,0.8-0.2,1.6-0.7,2.2
			c-1.1,2.1-3.5,3.1-5.8,3.3"/>
		<path class="st1" d="M281.5,76.9c3.1-0.2,4-2,5.3-4c-0.9-0.4-2.1-0.2-3.1,0c-0.4,0.2-0.9,0.2-1.2,0.5c-1.2,0.8-1.6,2.1-1.5,3.5"/>
		<path class="st1" d="M304.7,86.7c-3.1,0.7-4.4-0.9-6.2-2.5c0.8-0.7,2-0.8,3.1-0.8c0.4,0,0.9,0,1.3,0.2c1.3,0.4,2.1,1.7,2.4,3.1"/>
		<path class="st1" d="M296,114.5c-0.2-5.4,3.1-7.3,6.4-9.8c0.9,1.6,0.7,3.5,0.4,5.4c-0.2,0.8-0.2,1.6-0.7,2.2
			c-1.2,2.1-3.5,2.9-5.9,3.1"/>
		<path class="st1" d="M264.3,102c3.1-0.2,4-2,5.3-4.1c-0.9-0.4-2.1-0.2-3.1,0c-0.4,0.2-0.8,0.2-1.2,0.5c-1.2,0.8-1.5,2.2-1.5,3.5"
			/>
		<path class="st1" d="M339.6,102.2c2.8,1.3,4.5,0.2,6.6-1.2c-0.7-0.8-1.7-1.2-2.8-1.5c-0.4-0.2-0.9-0.2-1.3-0.2
			c-1.3,0.2-2.4,1.2-2.9,2.5"/>
		<path class="st1" d="M335.9,103.3c-3.5-1.8-3.7-4.6-4.1-7.8c1.5,0,2.6,0.8,3.7,1.7c0.4,0.4,0.9,0.8,1.2,1.2c0.9,1.6,0.7,3.5-0.2,5
			"/>
		<path class="st1" d="M307,84c2.9-1.2,3.1-3.3,3.5-5.7c-1.1-0.2-2.1,0.5-2.9,1.1c-0.4,0.2-0.7,0.5-0.9,0.9
			c-0.8,1.1-0.7,2.5-0.2,3.8"/>
		<path class="st1" d="M261.6,104.9c-3.1,0.5-4.4-0.9-6.2-2.6c0.8-0.7,2-0.8,3.1-0.8c0.4,0,0.9,0,1.3,0.2c1.3,0.5,2,1.7,2.2,3.1"/>
	</g>
	<g>
		<path class="st2" d="M285.5,184.5c0,0-6.2-21,25.1-44.4c0,0,22.3-12.5,30.8-45.3c0,0-15.6,29.4-34.9,39.3
			C306.5,134.3,267.9,160.4,285.5,184.5z"/>
		<path class="st2" d="M281.3,159.1c0,0,7.5-16.5,25.5-27c0,0,16.4-19.4-4.1-55.6c0,0,8.4,32,1.6,44.2c0,0-2.2,5.9-15.8,19.5
			C288.4,140,280.1,148.4,281.3,159.1z"/>
		<path class="st2" d="M327.8,85.6c-3.5,3.1-7.5,9.2-10.3,18.7c0,0.2-0.2,0.4-0.2,0.7c-0.5,2.6-3.1,19.8-6.1,23.5c0,0,7.1-5.4,9.4-9
			c0,0,0.2-25.5,8.7-35.1C329.5,84.4,327.8,85.6,327.8,85.6z"/>
		<path class="st2" d="M319.7,134.7c0,0,27.9-1.2,35.4-31.2c0,0-7.8,19-26.8,22.8C328.4,126.3,324.7,132.3,319.7,134.7z"/>
		<path class="st2" d="M294,130.3c0,0,7.8-8.1,8.2-10.6c0,0-23.1-11.4-21-48.7c0,0-6.1,20.9,1.8,37.6c0,0.2,0.2,0.2,0.2,0.2
			C284.1,110.2,293.3,125.7,294,130.3z"/>
		<path class="st2" d="M283.8,142.4c0,0,5-8.1,8.8-10.6c0,0-0.4-6.6-8.8-8.4c0,0-21.3-3.1-20-26.6c0,0-9.4,20.4,14,32
			c1.1,0.5,3.7,2.8,4.1,3.1C282.8,133.3,285.9,137.8,283.8,142.4z"/>
		<path class="st2" d="M245,109.9c0,0,6.4,21.5,24.7,16.4c0,0-4.1-2.1-5.4-5.8C264.3,120.5,251.6,122.6,245,109.9z"/>
	</g>
</g>
<g>
	<g class="st3">
		<path class="st4" d="M300.8,48.8c0,0,0.5,0.4,0.8,0.6c0,0.1-0.1,0.1-0.2,0.1h-2.7v1.6c0,0.5-0.1,0.9-1.1,0.9
			c0-0.2-0.1-0.4-0.2-0.5s-0.4-0.2-0.8-0.3v-0.1c0,0,1,0.1,1.3,0.1c0.1,0,0.2,0,0.2-0.2v-1.5H295l-0.1-0.2h3V48h-2.5l-0.1-0.2h2.6
			v-1.2c-0.8,0.1-1.7,0.1-2.5,0.1l0-0.1c1.7-0.2,3.7-0.6,4.8-1.1l0.7,0.7c-0.1,0.1-0.2,0.1-0.4,0c-0.5,0.1-1.1,0.2-1.8,0.3v1.3h1.4
			l0.4-0.5c0,0,0.5,0.4,0.8,0.6c0,0.1-0.1,0.1-0.2,0.1h-2.4v1.3h1.7L300.8,48.8z"/>
		<path class="st4" d="M308.3,49.4c0.2,0.3,0.2,0.4,0.2,0.5c-0.2,0.3-0.7,0.1-1-0.1c-0.3-0.2-0.6-0.5-0.8-0.8
			c-0.3,0.3-0.7,0.5-1.1,0.7l-0.1-0.1c0.3-0.2,0.7-0.6,1-1c-0.3-0.4-0.4-0.8-0.6-1.3c0,0-0.1,0.1-0.2,0.1h-2.3l-0.1-0.2h1.5l0.4-0.5
			c0,0,0.4,0.3,0.6,0.5c-0.1-0.2-0.1-0.5-0.1-0.7h-2.5v0.9c0,0.8-0.1,2.1-1.2,2.8l-0.1-0.1c0.6-0.8,0.6-1.9,0.6-2.8v-1.3l0.7,0.3
			h2.4c0-0.3-0.1-0.6-0.1-0.9l0.9,0.1c0,0.1-0.1,0.2-0.2,0.2c0,0.2,0,0.4,0,0.6h1.3l0.3-0.5c0,0,0.4,0.3,0.6,0.6
			c0,0.1-0.1,0.1-0.2,0.1h-2c0.1,0.5,0.2,1,0.5,1.5c0.2-0.4,0.4-0.8,0.5-1.2l0.9,0.3c0,0.1-0.1,0.1-0.3,0.1
			c-0.2,0.5-0.5,0.9-0.8,1.3c0.2,0.2,0.4,0.4,0.7,0.6c0.1,0.1,0.2,0.1,0.2,0c0.1-0.1,0.2-0.4,0.3-0.7l0.1,0L308.3,49.4z M303.2,50.1
			c0.2,0.9-0.1,1.4-0.4,1.6c-0.2,0.1-0.5,0.1-0.6-0.1c-0.1-0.2,0.1-0.4,0.3-0.5c0.3-0.1,0.7-0.5,0.7-1L303.2,50.1z M304.1,49.4
			c0,0-0.3,0.2-0.5,0.2h-0.1v-1.9l0.6,0.2h0.7l0.3-0.3l0.6,0.5c0,0-0.1,0.1-0.3,0.1v1c0,0-0.3,0.2-0.5,0.2h-0.1v-0.3h-0.8V49.4z
			 M306.8,51.2c0.2,0.1,0.3,0.1,0.3,0.3c0,0.3-0.3,0.4-1.6,0.4h-0.9c-0.7,0-0.8-0.1-0.8-0.6v-1.4l0.9,0.1c0,0.1-0.1,0.2-0.2,0.2v1
			c0,0.1,0,0.1,0.3,0.1h0.8c0.3,0,0.6,0,0.7,0c0.1,0,0.1,0,0.2-0.1c0.1-0.1,0.2-0.4,0.3-0.7h0.1L306.8,51.2z M304.1,48.2v0.8h0.8
			v-0.8H304.1z M304.7,49.7c1.8,0.1,1.5,1.4,0.9,1.1C305.4,50.5,305,50,304.7,49.7L304.7,49.7z M306.6,45.5c1.4,0.1,0.9,1.1,0.4,0.7
			C306.9,46,306.7,45.7,306.6,45.5L306.6,45.5z M306.9,50c2.2,0.5,1.7,2,0.9,1.6C307.7,51.1,307.2,50.5,306.9,50L306.9,50z"/>
	</g>
	<g class="st3">
		<path class="st4" d="M297.3,56.8c0,0.1-0.1,0.1-0.3,0.1c-0.1,0.8-0.3,1.5-0.6,2.1c0.7,0.5,1.6,0.6,3,0.6c0.5,0,1.5,0,2,0v0.1
			c-0.3,0.1-0.4,0.3-0.4,0.6h-1.7c-1.5,0-2.5-0.2-3.2-1c-0.3,0.4-0.7,0.8-1.2,1.1l-0.1-0.1c0.5-0.4,0.8-0.8,1-1.4
			c-0.2-0.4-0.4-0.9-0.6-1.5l0.1,0c0.2,0.5,0.4,0.9,0.6,1.2c0.2-0.6,0.3-1.2,0.4-1.9h-0.6c-0.1,0.1-0.1,0.2-0.2,0.3
			c-0.2,0-0.4,0-0.6-0.1c0.3-0.7,0.7-1.7,1-2.3h-1l-0.1-0.2h1.1l0.3-0.3l0.7,0.5c0,0.1-0.2,0.1-0.3,0.1c-0.2,0.4-0.5,1.1-0.8,1.7
			h0.4l0.3-0.4L297.3,56.8z M301,55.1c0,0,0.4,0.3,0.5,0.6c0,0.1-0.1,0.1-0.2,0.1h-0.8v1c0,0-0.3,0.2-0.5,0.2H300v-0.2h-0.8v0.7h0.8
			l0.3-0.5c0,0,0.4,0.3,0.7,0.6c0,0.1-0.1,0.1-0.2,0.1h-1.6v0.7h1l0.4-0.5c0,0,0.4,0.3,0.7,0.6c0,0.1-0.1,0.1-0.2,0.1h-1.9v0.7
			c0,0.1-0.3,0.2-0.5,0.2h-0.1v-0.9H297l-0.1-0.2h1.6v-0.7h-1.3l-0.1-0.2h1.3v-0.7h-1.2l-0.1-0.2h1.2v-0.7h-1.7l-0.1-0.2h1.7v-0.7
			h-1.2l-0.1-0.2h1.2v-0.8l0.9,0.1c0,0.1-0.1,0.2-0.3,0.2v0.5h0.8l0.3-0.3l0.7,0.5c0,0-0.2,0.1-0.3,0.1v0.6h0.1L301,55.1z
			 M299.2,55.6h0.8v-0.7h-0.8V55.6z M300,55.8h-0.8v0.7h0.8V55.8z"/>
		<path class="st4" d="M305.8,58.6c0.7,0.5,1.8,0.8,2.8,1l0,0.1c-0.3,0.1-0.5,0.3-0.5,0.6c-1-0.3-1.9-0.9-2.4-1.7h0v1.6
			c0,0-0.3,0.2-0.5,0.2h-0.1V59c-0.7,0.6-1.7,1.1-2.9,1.4l0-0.1c1-0.4,1.8-1,2.4-1.6h-2.2l-0.1-0.2h2.8v-0.7c-0.2,0.1-0.6,0.3-1,0.4
			l0-0.1c1.1-0.4,1.2-1,1.2-1.6v-0.9c-0.1,0-0.1,0.1-0.2,0.1l-0.1-0.1c0.4-0.4,0.7-1,1-1.7l0.8,0.3c0,0.1-0.1,0.1-0.3,0.1
			c-0.1,0.1-0.2,0.3-0.3,0.4h1.3l0.4-0.5c0,0,0.4,0.3,0.7,0.5c0,0.1-0.1,0.1-0.2,0.1h-1.5c0.4,0.2,0.5,0.5,0.4,0.7l0.5,0.4
			c0,0-0.1,0.1-0.2,0.1v1.1c0,0.1,0,0.1,0.1,0.1h0.2c0.1,0,0.2,0,0.2,0c0,0,0.1,0,0.1-0.1c0-0.1,0.1-0.4,0.2-0.7h0.1l0,0.7
			c0.2,0.1,0.2,0.1,0.2,0.2c0,0.2-0.2,0.4-0.8,0.4h-0.4c-0.4,0-0.5-0.1-0.5-0.5V56h-1.1v0.4l0.1,0c1.4,0.2,1,1.2,0.5,0.9
			c0-0.3-0.3-0.6-0.5-0.8v0c0,0.4-0.1,0.9-0.8,1.3l0.9,0.1c0,0.1-0.1,0.2-0.2,0.2v0.4h1.8l0.4-0.4c0,0,0.4,0.3,0.7,0.5
			c0,0.1-0.1,0.1-0.2,0.1H305.8z M303.2,54.9c-0.4,0.4-0.8,0.8-1.2,1l-0.1-0.1c0.4-0.4,0.9-1.1,1.1-1.9l0.8,0.4
			c0,0.1-0.1,0.1-0.3,0.1c-0.1,0.1-0.1,0.2-0.2,0.3h1l0.3-0.4c0,0,0.4,0.3,0.6,0.5c0,0.1-0.1,0.1-0.2,0.1h-1.3
			c0.8,0.4,0.2,1.1-0.2,0.7c0-0.2-0.1-0.5-0.2-0.7H303.2z M303.8,56.2v1c0.3-0.1,0.7-0.1,1-0.2l0,0.1c-0.5,0.2-1.2,0.5-2.2,0.8
			c0,0.1-0.1,0.1-0.2,0.2l-0.4-0.7c0.2,0,0.6-0.1,1.1-0.1v-1.1h-0.9l-0.1-0.2h1.7l0.3-0.4c0,0,0.4,0.3,0.6,0.5
			c0,0.1-0.1,0.1-0.2,0.1H303.8z M305.9,54.9c-0.3,0.3-0.5,0.5-0.8,0.7l0.7,0.3h1l0.1-0.1c-0.1,0-0.2,0-0.3-0.1
			c0-0.2-0.2-0.5-0.3-0.7H305.9z"/>
	</g>
	<g class="st3">
		<path class="st4" d="M348.8,137.4c-0.4,0.3-1,0.8-1.9,1.3c0,0.1-0.1,0.2-0.1,0.2l-0.4-0.8c0.2-0.1,0.5-0.2,0.9-0.3v-1.9h-0.7
			l-0.1-0.2h0.8V134h-0.8l-0.1-0.2h1.4l0.4-0.5c0,0,0.4,0.3,0.6,0.5v-0.7l0.7,0.3h2.4l0.3-0.3l0.7,0.5c0,0.1-0.1,0.1-0.3,0.1v1
			c0,0-0.1,0.1-0.2,0.1c0.1,0.1,0.4,0.3,0.6,0.5c0,0.1-0.1,0.1-0.2,0.1h-4.2l-0.1-0.2h3.4l0.3-0.4c-0.1,0-0.2,0-0.3,0h-0.1v-0.1
			h-2.5v0.1c0,0-0.3,0.2-0.5,0.2h-0.1V134c0,0-0.1,0-0.1,0h-0.8v1.7h0l0.3-0.5c0,0,0.4,0.3,0.5,0.6c0,0.1-0.1,0.1-0.2,0.1h-0.7v1.7
			C348.2,137.5,348.5,137.4,348.8,137.4L348.8,137.4z M352.9,137.6c0,0.1-0.1,0.1-0.2,0c-0.2,0.1-0.6,0.3-0.9,0.4
			c0.4,0.3,0.9,0.6,1.3,0.7l0,0.1c-0.2,0-0.4,0.2-0.5,0.6c-0.8-0.4-1.4-1.1-1.7-2.1c0,0.1-0.1,0.1-0.2,0.2v1.9c0,0-0.2,0.2-0.5,0.2
			h-0.1V138c-0.6,0.4-1.3,0.8-2.2,1l-0.1-0.1c1-0.4,1.8-1.1,2.3-1.8h-0.5v0.1c0,0-0.3,0.2-0.5,0.2H349v-1.8l0.7,0.3h2l0.3-0.4
			l0.7,0.5c0,0.1-0.2,0.1-0.3,0.1v0.9c0,0,0,0-0.1,0.1L352.9,137.6z M349.4,133.6v1h0.5v-1H349.4z M351.7,136.9v-0.8h-2.1v0.8H351.7
			z M350.4,133.6v1h0.5v-1H350.4z M351,137.2c0.1,0.3,0.4,0.5,0.6,0.8c0.2-0.2,0.4-0.4,0.5-0.6c-0.1,0-0.2,0.1-0.3,0.1h-0.1v-0.2
			L351,137.2L351,137.2z M351.4,133.6v1h0.5v-1H351.4z"/>
		<path class="st4" d="M355.8,137c-0.4,0.3-1,0.7-1.9,1.3c0,0.1-0.1,0.2-0.2,0.2l-0.4-0.8c0.2,0,0.5-0.1,0.8-0.2v-2.1h-0.7l-0.1-0.2
			h0.8v-1.9l0.9,0.1c0,0.1-0.1,0.2-0.3,0.2v1.6h0l0.3-0.5c0,0,0.2,0.2,0.4,0.5h1.2c-0.1,0-0.1-0.1-0.2-0.1c0-0.3-0.1-0.6-0.3-0.9
			h-0.7l-0.1-0.2h1.6V133l0.9,0.1c0,0.1-0.1,0.2-0.3,0.2v0.5h0.9l0.4-0.5c0,0,0.4,0.3,0.7,0.6c0,0.1-0.1,0.1-0.2,0.1h-1l0.5,0.1
			c0,0.1-0.1,0.1-0.3,0.1c-0.2,0.2-0.4,0.5-0.7,0.7h0.8l0.4-0.5c0,0,0.4,0.4,0.7,0.6c0,0.1-0.1,0.1-0.2,0.1h-4.1
			c0,0-0.1,0.1-0.1,0.1h-0.8v1.9C355.2,137.1,355.5,137,355.8,137L355.8,137z M359.9,138.8c0.2,0.1,0.2,0.1,0.2,0.3
			c0,0.2-0.2,0.4-1.1,0.4h-0.5c-0.5,0-0.6-0.1-0.6-0.5v-1.4h-0.4c-0.2,1.2-1,1.8-2.6,2.1l0-0.1c1.3-0.4,1.8-1,1.9-2h-0.1v0.2
			c0,0.1-0.3,0.2-0.6,0.2H356v-2.5l0.7,0.3h2l0.3-0.4l0.7,0.5c0,0.1-0.1,0.1-0.3,0.1v1.6c0,0-0.3,0.2-0.6,0.2h-0.1v-0.3h-0.3v0.1
			v1.2c0,0.1,0,0.1,0.2,0.1h0.4h0.4c0.1,0,0.1,0,0.1-0.1c0.1-0.1,0.1-0.4,0.2-0.8h0.1L359.9,138.8z M356.7,135.9v0.6h2.1v-0.6H356.7
			z M356.7,137.3h2.1v-0.6h-2.1V137.3z M356.7,134c0.8,0.3,0.7,0.9,0.5,1h0.9c0.1-0.3,0.2-0.7,0.3-1H356.7z"/>
	</g>
	<g class="st3">
		<path class="st4" d="M349.1,144.4c0,0.1-0.1,0.1-0.3,0.1c-0.3,1.2-1,2.2-2.4,2.9l-0.1-0.1c1-0.7,1.5-1.7,1.8-2.8h-1.6l-0.1-0.2
			h1.6l0.4-0.4L349.1,144.4z M352.7,143.6c0,0.1-0.1,0.1-0.3,0.1c-0.4,0.4-1.1,0.8-1.7,1.2c0.6,1,1.5,1.5,2.4,1.9l0,0.1
			c-0.3,0.1-0.5,0.3-0.6,0.6c-1.1-0.7-2-1.7-2.4-3.6v3.3c0,0.5-0.1,0.8-1,0.8c0-0.2-0.1-0.4-0.2-0.5c-0.1-0.1-0.3-0.2-0.7-0.2v-0.1
			c0,0,0.8,0.1,1,0.1c0.1,0,0.2-0.1,0.2-0.2v-3.8h-1.7l-0.1-0.2h1.7l0.3-0.4l0.7,0.5c0,0.1-0.2,0.1-0.3,0.1v0c0.1,0.5,0.3,1,0.5,1.3
			c0.5-0.5,1-1.2,1.3-1.6L352.7,143.6z M348.5,141.4c2.7,0,2.4,1.5,1.7,1.2C349.9,142.3,349.3,141.9,348.5,141.4L348.5,141.4z"/>
		<path class="st4" d="M359.4,142.9l0.6,0.4c0,0-0.1,0.1-0.2,0.1v1.1c0,0-0.3,0.1-0.4,0.2l0.4,0.3c0,0-0.1,0.1-0.2,0.1v1.7
			c0,0-0.3,0.2-0.5,0.2h-0.1v-0.2H357v0.1c0,0.1-0.3,0.2-0.5,0.2h-0.1v-2.4c-0.1,0-0.1,0-0.2,0c0,0.3-0.3,0.5-0.5,0.3
			c0-0.1,0-0.3-0.1-0.5l-0.4,0.1v3.1c0,0-0.2,0.2-0.5,0.2h-0.1v-2.2c0,0-0.1,0.1-0.2,0.1c-0.2,0.6-0.4,1.2-0.8,1.6l-0.1-0.1
			c0.2-0.5,0.3-1.2,0.4-1.9l0.7,0.1v-0.7c-0.2,0-0.4,0.1-0.6,0.2c0,0.1-0.1,0.1-0.2,0.1l-0.2-0.7c0.2,0,0.4,0,0.7,0
			c0.4-0.7,0.8-1.6,1.1-2.2l0.8,0.3c0,0.1-0.1,0.1-0.3,0.1c-0.3,0.5-0.9,1.2-1.4,1.8c0.3,0,0.7,0,1.1-0.1c-0.1-0.2-0.2-0.4-0.3-0.6
			l0.1,0c0.4,0.2,0.6,0.4,0.8,0.6v-1.5l0.6,0.3h2.5L359.4,142.9z M355.3,141.7c0,0.1-0.1,0.1-0.3,0.1c-0.3,0.4-0.5,0.7-0.8,1
			c0.5,0.4,0.2,1-0.3,0.7c0-0.3-0.3-0.7-0.5-0.9l0.1,0c0.2,0.1,0.4,0.1,0.5,0.2c0.1-0.4,0.3-0.9,0.4-1.3L355.3,141.7z M355.3,145.4
			c1.3,0.8,0.7,1.8,0.2,1.3C355.6,146.3,355.4,145.8,355.3,145.4L355.3,145.4z M355.6,147.8c0.6-0.2,1.3-0.6,1.6-1l0.7,0.5
			c0,0.1-0.1,0.1-0.3,0C357.2,147.6,356.4,147.9,355.6,147.8L355.6,147.8z M355.9,142h1.7v-0.5l0.9,0.1c0,0.1-0.1,0.2-0.2,0.2v0.3
			h0.8l0.4-0.4c0,0,0.4,0.3,0.7,0.5c0,0.1-0.1,0.1-0.2,0.1h-1.6v0.4h0.6l0.4-0.4c0,0,0.4,0.3,0.6,0.5c0,0.1-0.1,0.1-0.2,0.1h-3.3
			l-0.1-0.2h1.3v-0.4H356L355.9,142z M359.2,144.6v-0.2h-2.6v0.1c0,0,0,0-0.1,0.1l0.5,0.2h1.8l0.3-0.3L359.2,144.6z M357.7,143.4
			c-0.1,0.3-0.3,0.6-1.1,0.7l-0.1-0.1v0.2h2.6V144c-0.1,0-0.3,0-0.5,0h-0.3c-0.3,0-0.4-0.1-0.4-0.4v-0.3H357.7z M356.6,143.4v0.6
			c0.5-0.2,0.6-0.4,0.6-0.6H356.6z M358.9,145.4V145H357v0.4H358.9z M357,146h1.9v-0.4H357V146z M358.9,146.6v-0.4H357v0.4H358.9z
			 M358.2,147c2.8,0.2,1.7,1.3,1.1,0.8c-0.2-0.2-0.6-0.5-1.2-0.7L358.2,147z M358.5,143.4L358.5,143.4v0.2c0,0.1,0,0.1,0.1,0.1h0.2
			h0.2c0,0,0.1,0,0.1,0c0,0,0.1,0,0.1,0h0v-0.3H358.5z"/>
	</g>
	<g>
		<g class="st3">
			<path class="st4" d="M243.5,132.3c0,0.1-0.1,0.2-0.3,0.2c0.2,2.6,0.8,4.4,3.2,5.3l0,0.1c-0.3,0.1-0.6,0.3-0.7,0.6
				c-1.8-1-2.4-2.6-2.6-4.8c-0.1,1.8-0.6,3.6-3.2,4.8l-0.1-0.1c2.7-1.8,2.6-4.1,2.6-6.3L243.5,132.3z"/>
			<path class="st4" d="M252.2,133.8c-0.3,1.1-0.8,2.1-1.6,2.9c0.8,0.6,1.8,1,2.8,1.3l0,0.1c-0.3,0-0.6,0.2-0.7,0.6
				c-1-0.3-1.9-0.8-2.5-1.5c-0.8,0.7-1.9,1.2-3.2,1.5l0-0.1c1.2-0.4,2.2-1,2.9-1.8c-0.6-0.7-1.1-1.7-1.3-2.9H247l-0.1-0.2h2.9v-1.5
				l0.9,0.1c0,0.1-0.1,0.2-0.3,0.2v1.2h1.7l0.4-0.6c0,0,0.5,0.4,0.8,0.7c0,0.1-0.1,0.1-0.2,0.1H252.2z M248.6,133.8
				c0.3,1.1,0.8,1.9,1.5,2.5c0.6-0.7,1-1.6,1.2-2.5H248.6z"/>
		</g>
		<g class="st3">
			<path class="st4" d="M246.2,144.3c0.1,0.2,0.2,0.3,0.1,0.4c-0.1,0.2-0.4,0.2-0.7,0c-0.6-0.4-0.7-1.2-0.7-2.2h-0.5
				c0,0.3-0.1,0.5-0.1,0.7c0.9,0.5,0.5,1.1,0.1,0.9c-0.1-0.1-0.2-0.2-0.3-0.4c-0.2,0.4-0.6,0.7-1.3,1l-0.1-0.1
				c0.6-0.4,0.9-0.8,1-1.2c-0.2-0.1-0.4-0.3-0.6-0.4l0.1-0.1c0.2,0,0.4,0.1,0.6,0.1c0-0.2,0-0.3,0.1-0.5h-0.7l-0.1-0.2h0.8
				c0-0.2,0-0.4,0-0.6h0h-0.1v-0.4h-1.3v0.3c0,0-0.2,0.1-0.4,0.1c0,0.1-0.1,0.1-0.2,0.1v0.2h0.3l0.3-0.3c0,0,0.3,0.2,0.5,0.4
				c0,0.1-0.1,0.1-0.2,0.1h-1v0.4h0.6l0.3-0.3c0,0,0.3,0.2,0.5,0.4c0,0.1-0.1,0.1-0.2,0.1H243l0,0.2c0.1,0,0.2,0.1,0.2,0.2
				c0,0.2-0.1,0.2-0.7,0.2h-0.3c-0.1,0-0.1,0-0.2,0c0,0-0.1,0.1-0.2,0.1v0.3h0.4l0.3-0.3c0,0,0.3,0.2,0.5,0.4c0,0.1-0.1,0.1-0.2,0.1
				h-1v0.3c0.4,0,0.7-0.1,1.1-0.1l0,0.1c-0.6,0.1-1.4,0.3-2.5,0.6c0,0.1-0.1,0.1-0.2,0.1l-0.2-0.6c0.3,0,0.7,0,1.2-0.1v-0.4h-0.9
				l-0.1-0.2h0.9v-0.5l0.6,0.1c-0.1-0.1-0.1-0.2-0.1-0.3v-0.3h-0.4c-0.2,0.5-0.7,0.8-1.4,1l0-0.1c0.5-0.2,0.7-0.5,0.8-0.8H240
				l-0.1-0.2h1.3v-0.4h-1l-0.1-0.2h1v-0.4l0.6,0.1v-0.4H240l0-0.2h1.9v-0.6l0.9,0.1c0,0.1-0.1,0.2-0.2,0.2v0.4h1.3v-0.6l0.9,0.1
				c0,0.1-0.1,0.2-0.3,0.2v0.4h0.9l0.4-0.4c0,0,0.4,0.3,0.6,0.5c0,0.1-0.1,0.1-0.2,0.1h-1.8v0.3c0,0-0.2,0.1-0.4,0.1l0.7,0.1
				c0,0.1-0.1,0.1-0.2,0.2c0,0.1,0,0.3,0,0.4h0.4l0.3-0.3l0.6,0.5c0,0-0.1,0.1-0.3,0.1c0,0.6,0.1,1.3,0.4,1.5c0,0,0.1,0,0.1,0
				c0.1-0.1,0.1-0.3,0.2-0.5l0.1,0L246.2,144.3z M245.6,145.1c0,0,0.4,0.3,0.7,0.5c0,0.1-0.1,0.1-0.2,0.1h-3.3
				c-0.3,0.2-0.6,0.4-0.8,0.6c0.7,0,1.5,0,2.3-0.1c-0.2-0.1-0.4-0.2-0.5-0.3l0-0.1c2.4,0.2,2,1.5,1.4,1.2c-0.1-0.2-0.3-0.4-0.6-0.6
				c-0.9,0.1-2,0.3-3.6,0.5c0,0.1-0.1,0.1-0.2,0.1l-0.3-0.7c0.3,0,0.7,0,1.1,0c0.1-0.2,0.3-0.4,0.4-0.6h-1.9l-0.1-0.2h5.3
				L245.6,145.1z M244.7,144.4c0,0,0.4,0.3,0.7,0.5c0,0.1-0.1,0.1-0.2,0.1h-3.8l-0.1-0.2h3.1L244.7,144.4z M242.2,142.9v0.2
				c0,0.1,0,0.1,0.1,0.1h0.2h0.2c0,0,0.1,0,0.1,0c0,0,0.1-0.1,0.1-0.2H242.2z"/>
			<path class="st4" d="M248.9,142.5c0,0.1-0.1,0.1-0.3,0.1c-0.1,0.2-0.3,0.5-0.5,0.7l0.3,0.1c0,0.1-0.1,0.1-0.2,0.1v3.3
				c0,0.1-0.3,0.2-0.5,0.2h-0.1v-3.1c-0.2,0.3-0.5,0.5-0.8,0.7l-0.1-0.1c0.6-0.7,1.1-1.8,1.3-2.5L248.9,142.5z M248.9,141
				c0,0.1-0.1,0.1-0.3,0.1c-0.4,0.5-1,1.1-1.7,1.5l-0.1-0.1c0.5-0.5,1-1.4,1.2-1.9L248.9,141z M250.4,142.2v4.5
				c0,0.1-0.3,0.2-0.5,0.2h-0.1v-3.8c0,0-0.1,0.1-0.2,0.1c-0.2,1-0.5,2-1,2.6l-0.1-0.1c0.3-0.8,0.5-1.8,0.5-2.8l0.8,0.1v-0.8h-1
				l-0.1-0.2h1.1v-1.4l0.9,0.1c0,0.1-0.1,0.2-0.3,0.2v1.1h0.4l0.3-0.3c0,0,0,0,0,0c0-0.3-0.2-0.6-0.3-0.8l0.1,0
				c0.4,0.1,0.6,0.3,0.7,0.5l0-0.1h0.8l0.4-0.5c0,0,0.4,0.3,0.7,0.6c0,0.1-0.1,0.1-0.2,0.1h-1.6c0,0.2-0.1,0.3-0.2,0.3
				c0.1,0.1,0.3,0.3,0.5,0.4c0,0.1-0.1,0.1-0.2,0.1H250.4z M250.7,142.9c1.5,1.5,0.7,2.8,0.3,2.2C251,144.6,250.9,143.6,250.7,142.9
				L250.7,142.9z M252.8,142.3c0,0,0.4,0.4,0.7,0.6c0,0.1-0.1,0.1-0.2,0.1h-0.5v3.2c0,0.4-0.1,0.8-0.8,0.8c0-0.2,0-0.4-0.1-0.4
				c-0.1-0.1-0.2-0.2-0.5-0.2v-0.1c0,0,0.6,0,0.7,0c0.1,0,0.1,0,0.1-0.1V143h-0.8l-0.1-0.2h1.1L252.8,142.3z"/>
		</g>
	</g>
</g>
<rect x="44.2" y="19.8" class="st5" width="162" height="204.6"/>
<g>
	<g>
		<text transform="matrix(1 0 0 1 44.1514 25.0261)" class="st6 st7">赤崁樓邊長大的陳百</text>
		<text transform="matrix(1 0 0 1 75.7514 25.0261)" class="st6 st7">棟，</text>
		<text transform="matrix(1 0 0 1 80.9514 25.0261)" class="st6 st7">對鳳凰樹有濃烈的情感 </text>
	</g>
</g>
<text transform="matrix(1 0 0 1 118.939 22.832)" class="st8 st7"> </text>
<text transform="matrix(1 0 0 1 44.1514 35.2886)" class="st8 st7">小時候赤崁樓沒有圍牆，家門前就有一棵巨大的鳳凰樹，小朋友在樹下玩捉迷藏、尪仔標、打彈珠，在廣</text>
<text transform="matrix(1 0 0 1 44.1514 41.0605)" class="st8 st7">場運動、打棒球，晚上廣場的康樂台還有各式各樣的表演，如歌舞團、賣藥、日用商品、小吃名產等攤販</text>
<text transform="matrix(1 0 0 1 44.1514 46.8325)" class="st8 st7">也隨之聚集，成了熱鬧滾滾的夜市。印象中從小家裡就是五個里的聯合辦公室，爺爺、爸爸、叔叔陸續做</text>
<text transform="matrix(1 0 0 1 44.1514 52.6045)" class="st8 st7">了11屆赤崁里里長，常常有人到家裡洽公、辦獎學金和清寒證明，或來調解紛爭等等。</text>
<g>
	<text transform="matrix(1 0 0 1 44.1514 64.1479)" class="st6 st7">返鄉回台南之後，第一個建案「誠美樸真」基地中間，</text>
</g>
<g>
	<text transform="matrix(1 0 0 1 44.1514 70.92)" class="st6 st7">正好有一棵奄奄一息的百年鳳凰老樹。</text>
</g>
<text transform="matrix(1 0 0 1 44.1514 81.4639)" class="st8 st7">一轉眼在台北打拼四十年，在親情的呼喚之下，將事業重心移到台南；第一個建案「誠美樸真」的基地恰</text>
<text transform="matrix(1 0 0 1 44.1514 87.2358)" class="st8 st7">好是台南望族侯家的風水寶地，基地正中間有一棵逾百歲的鳳凰樹爺爺，樹葉枯黃、白蟻叢生且部分支幹</text>
<text transform="matrix(1 0 0 1 44.1514 93.0073)" class="st8 st7">內側已腐爛；樹醫生診斷後認為鳳凰樹年事已高，長期生長在建築廢棄土下方，樹根無法橫向發展，移植</text>
<text transform="matrix(1 0 0 1 44.1514 98.7798)" class="st8 st7">或不移植都不樂觀。憑藉著信仰而來的信心與力量，決定加緊腳步移樹讓百年鳳凰樹有活下來的機會；這</text>
<text transform="matrix(1 0 0 1 44.1514 104.5513)" class="st8 st7">項移樹工程非常危險艱難，首先樹圍250公分，3噸重必須調度全台南最大的350噸吊車，園藝公司先將老</text>
<text transform="matrix(1 0 0 1 44.1514 110.3232)" class="st8 st7">樹斷根，為了保護樹根，工人冒著危險爬進吊起的老樹根球下，敲開被根包覆的廢棄物，進一步修根、修</text>
<text transform="matrix(1 0 0 1 44.1514 116.0952)" class="st8 st7">枝、新穴換土後移植老樹、再第二次修根、固定、施藥殺菌、給養分。為了防止根部在下雨時浸水，另外</text>
<text transform="matrix(1 0 0 1 44.1514 121.8672)" class="st8 st7">在樹旁挖坑，讓積水排入坑中。</text>
<text transform="matrix(1 0 0 1 44.1514 133.4106)" class="st6 st7">每天禱告，耐心等候奇蹟的發生 ……</text>
<text transform="matrix(1 0 0 1 44.1514 144.9546)" class="st8 st7">過去，台南人一直認為在湯德章紀念公園的那棵百年鳳凰樹姿態最美，但這棵鳳凰樹在移植之後，生長復</text>
<text transform="matrix(1 0 0 1 44.1514 150.7271)" class="st8 st7">原順利，入夏之後枝枒茂盛、鳳凰花綻放一片艷紅，被台南的護樹人士譽為姿態更勝一籌，「比美鳳凰樹</text>
<text transform="matrix(1 0 0 1 44.1514 156.4985)" class="st8 st7">屆的林志玲」!  在移植後的兩個月開第一朵花，3個月後已經是花團錦簇，浴火重生的鳳凰樹，開始有小</text>
<text transform="matrix(1 0 0 1 44.1514 162.27)" class="st8 st7">鳥、松鼠來陪伴…..</text>
<text transform="matrix(1 0 0 1 44.1514 173.814)" class="st6 st7">台南像這棵美麗的鳳凰樹一樣，老幹加新枝生意盎然 !</text>
<text transform="matrix(1 0 0 1 44.1514 185.3579)" class="st8 st7">回台南一段時間後，重新認識故鄉台南，驚奇發現台南像這棵美麗的鳳凰樹一樣，以傳統與創新並存的姿</text>
<text transform="matrix(1 0 0 1 44.1514 191.1304)" class="st8 st7">態，鮮活地佇立在新舊時代的交界處。這幾年開始整理祖先們留下近360年歷史的祖厝「陳德聚堂」，試</text>
<text transform="matrix(1 0 0 1 44.1514 196.9019)" class="st8 st7">著將塵封已久的祖厝空間逐漸轉換成為藝文展演的開放空間，彷彿有種使命在召喚，越來越清楚的知道，</text>
<text transform="matrix(1 0 0 1 44.1514 202.6733)" class="st8 st7">返鄉除了是思念台南的過去，同時也要更積極地捲起衣袖與年輕人共創台南的未來。</text>
<g id="ZMgZ2w_1_">
	<g>
		<path d="M201.6,219.2c0.2-0.3,0.5-0.5,0.9-0.9c0-0.1,0-0.4,0-0.8c0.4,0,0.7,0,1.3,0c-0.3,0.4-0.4,0.7-0.7,1c0,0.3,0,0.7,0,1.2
			c1,0.3,1.7-0.4,2.7-0.5c-0.1,0.1-1.2,0.7-1.2,0.7c-0.4,0.2-0.8,0.3-1.2,0.5c-0.1,0.4-0.2,0.8,0.1,1.2c0.3,0.6,0.2,1.2-0.2,1.7
			c-0.1,0-0.2,0-0.3,0c-0.5-0.4-1-0.8-1.5-1.2c0-0.5,0-0.9,0-1.3c0.4-0.2,0.7-0.5,1.1-0.7c0-0.2,0-0.5,0-0.7
			c-0.1-0.1-0.2-0.2-0.3-0.3C202.1,219,201.8,219.1,201.6,219.2z M201.7,221.2c0.6,0.4,0.6,1.3,1.4,1.4c0-0.6,0-1.3,0-2
			c-0.2,0-0.4-0.1-0.6,0C202.2,220.7,202,220.9,201.7,221.2z"/>
		<path d="M197.1,217.7c0.1-0.3,0.3-0.6,0.4-0.8c0.3,0,0.7,0,1,0l0.1,0.1c-0.3,0.1-0.6,0.1-0.7,0.2c0.2,0.8,0.3,1.2,0.4,1.5
			c0.7-0.7,1.4-1.4,2.2-2.1c0.3-0.3,0-0.8,0.5-1.1c0.7-0.1,1.3-0.2,2-0.4c0,0,0,0.1,0.1,0.1c-0.2,0.1-0.5,0.3-0.7,0.4
			c-0.3,0.2-0.5,0.4-1.2,0.4c-0.2,0.1-0.1,0.2-0.1,0.2c0.1,0,0.3-0.1,0.4-0.1c-0.2-0.1-0.4-0.1-0.4,0c0.2,0.4,0,0.7-0.2,0.9
			c-0.2,0.4,0.3,1-0.4,1.3c0-0.3,0-0.6,0-0.8c-0.8,0.8-1.6,1.5-2.4,2.3c0.2,0.7,0.4,1.6,0.6,2.5c-0.1,0-0.3,0.1-0.5,0.1
			c0-0.4,0-0.8-0.1-1.1s-0.3-0.7-0.5-1.1c-0.3,0.6-0.6,1.1-0.9,1.6c-0.1,0-0.3-0.1-0.5-0.1c0.2-0.5,0.4-1.1,0.7-1.4
			c0.4-0.3,0-1,0.7-1.2c0,0,0,0-0.1,0c0,0.2,0.1,0.4,0.1,0.7c0.1-0.2,0.2-0.3,0.2-0.3c0-0.1-0.1-0.2-0.2-0.3
			C197.6,218.6,197.9,217.9,197.1,217.7z"/>
		<path d="M190.5,221.2c0.2,0.1,0.3,0.2,0.5,0.3c0.3-0.8,0.6-1.6,1-2.3c0.2-0.5,0.2-0.5,1.1-0.6c0.2,0.8,0.3,1.6,0.5,2.3
			c0.3-0.2,0.5-0.4,0.8-0.6c0,0.1,0,0.2,0,0.3c-0.5,0.6-0.9,1.4-1.7,1.8c-0.3-0.5-0.5-1-0.8-1.5c-0.2,0.5-0.4,1-0.5,1.4
			C190.7,221.8,190.7,221.8,190.5,221.2z M193,221.6c0.3-1.6,0.1-2.4-0.5-2.4c-0.1,0.2-0.3,0.5-0.4,0.7
			C192.4,220.3,192.6,220.8,193,221.6z"/>
		<path d="M186.3,218.9c-0.1,0.2-0.3,0.5-0.5,0.7c0.1,0.3,0.2,0.6,0.3,1c0.2,0,0.5,0,0.8,0c-0.2,0.1-0.3,0.3-0.6,0.5
			c0,0.5,0,1.1,0,1.8c-0.9,0.2-1.5,0-2.1-0.7c0.5-0.4,1-0.7,1.5-1.1c0.1-0.6,0-1.2-0.6-1.7c0.1-0.1,0.1-0.2,0.2-0.4
			c-0.2-0.6-0.4-1.2,0.2-1.6c0.7,0.2,1.4,0.5,2.2,0.7C187.2,218.6,186.9,218.9,186.3,218.9c0.1-0.2,0.2-0.3,0.4-0.5
			c-0.3-0.1-0.5-0.3-1-0.5c0,0.5,0.1,0.7,0.1,1C186,218.9,186.1,218.9,186.3,218.9z M184.7,222.3c1.4,0.1,1.4,0.1,1.3-0.8
			C185.6,221.7,185.2,222,184.7,222.3z"/>
		<path d="M181,221.5c-0.5-0.7-1-1.4-1-2.4c0.6,0.4,1.1,0.7,1.9,1.2c-0.8-1.5-1.3-2.8-1.6-4.2c0.2,0,0.3-0.1,0.4-0.1
			c0.1,0.1,0.2,0.2,0.2,0.2c-0.1,1.2,0.5,2.2,1,3.2c0.2,0.4,0.4,0.9,0.7,1.6c-0.8-0.4-1.4-0.7-2-1C180.8,220.6,180.9,221,181,221.5z
			"/>
		<path d="M183.4,216.6c0.1-0.1,0.3-0.3,0.5-0.5c0-0.3,0-0.5,0-0.9c0.6,0,1.1,0,1.7,0c0,0.2,0,0.4,0,0.6c-0.6,0.4-1.2,0.8-1.7,1.1
			c0,0.4-0.1,0.6-0.1,1.2C183.7,217.4,183.6,217.1,183.4,216.6z M184.8,216.2c0-0.5,0-0.7,0-0.9c-0.2,0-0.3,0.1-0.6,0.1
			C184.3,215.7,184.5,215.9,184.8,216.2z"/>
		<path d="M200.7,218.3c0,0.4,0,0.7,0,1.1c0.3-0.1,0.6-0.2,0.9-0.2c-0.1,0.2-0.2,0.5-0.4,0.5c-0.6,0.2-1,0.5-1.1,1.1
			c0,0.1-0.3,0.1-0.5,0.2c0.4-0.9,1-1.6,1-2.6C200.4,218.4,200.6,218.3,200.7,218.3z"/>
		<path d="M183.4,219.2c0,0.3,0,0.5,0,0.9c0.5-0.1,0.8-0.2,1.2-0.3c-0.3,0.7-1,0.9-1.7,0.9c0.1-0.4,0.1-0.8,0.2-1.1
			C183.1,219.4,183.3,219.3,183.4,219.2z"/>
		<path d="M192.9,216.6c0.5,0,0.9,0,1.5,0c0,0.5-0.3,0.8-0.9,0.8c0.1-0.2,0.2-0.4,0.3-0.6c-0.3,0-0.6,0-0.9,0
			C192.9,216.8,192.9,216.7,192.9,216.6z"/>
		<path d="M183.4,217c-0.5,0-0.9,0-1.4,0l-0.1-0.1c0.2-0.1,0.4-0.1,0.7-0.2c0-0.1-0.1-0.2-0.1-0.3c0.2,0.1,0.4,0.3,0.6,0.3
			c0.1,0.1,0.3,0,0.5,0C183.4,216.9,183.4,217,183.4,217z"/>
		<path d="M181.1,221.5c0.1,0.1,0.3,0.3,0.4,0.4c0,0.3,0,0.7,0,1c-0.1,0-0.1,0-0.2,0c-0.2-0.5-0.3-0.9-0.5-1.4
			C180.9,221.5,181,221.5,181.1,221.5z"/>
		<path d="M190.1,220.7c-0.3-0.4-0.5-0.8-0.8-1.2c0.2,0,0.3-0.1,0.5-0.1c0.2,0.4,0.3,0.8,0.5,1.2
			C190.2,220.6,190.2,220.7,190.1,220.7z"/>
		<path d="M189.9,218.6c0.1-0.5,0.4-0.6,0.9-0.6C190.7,218.5,190.4,218.6,189.9,218.6z"/>
		<path d="M189.9,218.6c-0.1,0.5-0.4,0.6-0.9,0.6C189.1,218.7,189.5,218.5,189.9,218.6z"/>
		<path d="M183.4,219.2c0-0.4,0-0.8,0-1.2c0.1,0,0.2,0.1,0.2,0.1C183.6,218.5,183.9,218.9,183.4,219.2z"/>
		<path d="M188.1,219.8c0.1-0.5,0.4-0.6,0.9-0.6C188.9,219.6,188.6,219.8,188.1,219.8z"/>
		<path d="M191.7,217.4c-0.1,0.5-0.4,0.6-0.9,0.6C190.9,217.5,191.3,217.4,191.7,217.4z"/>
		<path d="M187.2,220.3c0.1-0.5,0.4-0.6,0.9-0.6C188,220.2,187.7,220.4,187.2,220.3z"/>
		<path d="M191.7,217.4c0-0.4,0.4-0.2,0.6-0.3C192.3,217.6,191.9,217.4,191.7,217.4z"/>
		<path d="M192.9,216.8c0,0.4-0.4,0.2-0.6,0.3C192.3,216.7,192.7,216.9,192.9,216.8z"/>
		<path d="M185.1,219.5c0,0.4-0.4,0.2-0.6,0.3C184.6,219.3,184.9,219.5,185.1,219.5z"/>
		<path d="M190.2,220.6c0.4,0,0.3,0.4,0.3,0.6C190.1,221.2,190.3,220.9,190.2,220.6z"/>
		<path d="M196.5,218.3c0.1-0.1,0.2-0.2,0.3-0.3C196.7,218.1,196.6,218.2,196.5,218.3z"/>
		<path d="M196.2,218.6c0.1-0.1,0.2-0.2,0.3-0.3C196.4,218.4,196.3,218.5,196.2,218.6z"/>
		<path d="M196.2,218.6c-0.1,0.1-0.2,0.2-0.3,0.3C196,218.8,196.1,218.7,196.2,218.6z"/>
		<path d="M197.1,217.7c-0.1,0.1-0.2,0.2-0.3,0.3C196.9,217.9,197,217.8,197.1,217.7z"/>
		<path d="M195.3,219.5c0.1-0.1,0.2-0.2,0.3-0.3C195.5,219.3,195.4,219.4,195.3,219.5z"/>
		<path d="M195,219.8c0.1-0.1,0.2-0.2,0.3-0.3C195.2,219.6,195.1,219.7,195,219.8z"/>
		<path d="M195,219.8c-0.1,0.1-0.2,0.2-0.3,0.3C194.8,220,194.9,219.9,195,219.8z"/>
		<path d="M194.7,220c-0.1,0.1-0.2,0.2-0.3,0.3C194.5,220.2,194.6,220.1,194.7,220z"/>
		<path d="M187.2,220.3c-0.1,0.1-0.2,0.2-0.3,0.3C187,220.5,187.1,220.4,187.2,220.3z"/>
		<path d="M195.6,219.2c0.1-0.1,0.2-0.2,0.3-0.3C195.8,219,195.7,219.1,195.6,219.2z"/>
	</g>
</g>
<g>
	<text transform="matrix(1 0 0 1 144.166 220.6167)" class="st9 st7">誠美開發團隊 負責人</text>
</g>
<line class="st10" x1="44.4" y1="27.4" x2="116.9" y2="27.4"/>
<line class="st10" x1="44.4" y1="175.7" x2="129.3" y2="175.7"/>
<line class="st10" x1="44.4" y1="135.3" x2="101.6" y2="135.3"/>
<line class="st10" x1="44.4" y1="73.3" x2="104.9" y2="73.3"/>
<line class="st10" x1="44.4" y1="66.7" x2="122.7" y2="66.7"/>
</svg>
